<svg width="512" height="344" xmlns="http://www.w3.org/2000/svg" preserveAspectRatio="xMidYMid meet">
 <metadata>Created by potrace 1.16, written by Peter Selinger 2001-2019</metadata>

 <g>
  <title>background</title>
  <rect fill="none" id="canvas_background" height="346" width="514" y="-1" x="-1"/>
 </g>
 <g>
  <title>Layer 1</title>
  <g id="svg_1" fill="#000000" transform="translate(0,512) scale(0.10000000149011612,-0.10000000149011612) ">
   <path fill="#ffffff" id="svg_2" d="m0,4996l0,-63l41,-7c140,-22 371,-226 503,-442c30,-50 495,-1107 1107,-2516l94,-218l67,0l68,0l96,193c52,105 229,449 392,764l296,572l118,-277c65,-152 211,-497 326,-767l208,-490l59,0l60,0l602,1390c331,765 618,1428 639,1474c88,196 210,298 384,319l55,7l3,58l3,57l-268,0c-147,0 -380,3 -516,7l-248,6l3,-64l3,-64l53,-6c119,-15 240,-83 292,-165l29,-46l-33,-76c-81,-189 -939,-2167 -941,-2170c-3,-3 -526,1176 -537,1213c-9,27 13,77 229,525c224,466 241,498 295,551c90,91 215,151 361,174l37,6l0,54l0,55l-495,0l-495,0l0,-60l0,-60l48,0c114,0 226,-37 258,-85c32,-49 16,-103 -121,-396c-70,-151 -157,-333 -194,-406l-66,-132l-89,197c-50,108 -136,298 -193,422c-57,124 -106,241 -109,261c-12,70 66,126 199,145l47,6l0,54l0,54l-575,0l-575,0l0,-60l0,-60l64,0c84,0 207,-24 264,-52c103,-49 106,-53 450,-823c93,-209 188,-419 210,-466l40,-87l-295,-561c-163,-309 -299,-558 -304,-554c-4,4 -181,411 -394,903c-213,492 -436,1005 -495,1140c-59,135 -111,255 -115,268c-10,35 12,88 53,123c52,46 152,90 233,103l69,10l0,63l0,63l-650,0l-650,0l0,-64z"/>
  </g>
 </g>
</svg>